<svg width="81" height="93" viewBox="0 0 81 93" fill="none" xmlns="http://www.w3.org/2000/svg">
<path d="M43.6101 61.0844C39.9201 61.6844 36.3601 61.5144 32.9701 59.8544C27.5001 57.1644 24.5101 51.2444 25.6501 45.4644C26.8801 39.2244 31.9801 34.7544 38.2901 34.3844C38.9101 34.3444 39.5301 34.3844 40.1501 34.3844C45.9901 34.4144 50.7601 36.4944 53.4801 41.9344C57.5301 50.0144 52.5001 59.6344 43.6101 61.0844Z" fill="#414141"/>
<path d="M42.0201 27.9945C40.0201 28.3145 38.0901 28.2245 36.2501 27.3245C33.2801 25.8645 31.6701 22.6545 32.2801 19.5245C32.9501 16.1445 35.7101 13.7245 39.1301 13.5245C39.4701 13.5045 39.8001 13.5245 40.1401 13.5245C43.3101 13.5345 45.8901 14.6645 47.3601 17.6145C49.5601 21.9945 46.8301 27.2045 42.0101 27.9945H42.0201Z" fill="#414141"/>
<path d="M41.0901 7.23444C40.0901 7.39444 39.1201 7.35444 38.2101 6.90444C36.7301 6.17444 35.9201 4.57444 36.2301 3.00444C36.5601 1.31444 37.9501 0.104444 39.6601 0.00444444C39.8301 -0.00555556 40.0001 0.00444444 40.1701 0.00444444C41.7501 0.00444444 43.0401 0.574444 43.7801 2.05444C44.8801 4.24444 43.5201 6.85444 41.1101 7.24444L41.0901 7.23444Z" fill="#414141"/>
<path d="M79.2301 65.2245C79.8801 65.2245 80.4001 65.8245 80.2901 66.4645C79.7701 69.4845 78.7801 72.2245 77.3301 74.6345C75.5801 77.6345 73.3501 80.2845 70.6501 82.5345C69.8701 83.1745 69.0601 83.7545 68.2301 84.3445C64.4501 86.9645 60.1301 88.8545 55.2701 90.1345C50.4001 91.4145 45.3701 92.0245 40.1601 92.0245C34.9501 92.0245 29.9501 91.4145 25.0501 90.1345C20.1501 88.8545 15.8101 86.9645 12.0601 84.3445C11.2301 83.7645 10.4501 83.1745 9.70012 82.5345C7.03012 80.2845 4.80012 77.6345 3.02012 74.6345C1.77012 72.5445 0.880121 70.2345 0.320121 67.6845C0.290121 67.5445 0.200122 67.1645 0.190122 67.0245C0.130122 66.5145 -0.249878 65.2245 0.270122 65.2345C14.1501 65.3545 79.2301 65.2345 79.2301 65.2345V65.2245Z" fill="#414141"/>
</svg>
