<?xml version="1.0" encoding="UTF-8"?>
<svg id="Layer_2" data-name="Layer 2" xmlns="http://www.w3.org/2000/svg" viewBox="0 0 141.16 151.07">
  <defs>
    <style>
      .cls-1 {
        fill: #414141;
        stroke-width: 0px;
      }
    </style>
  </defs>
  <g id="Layer_1-2" data-name="Layer 1">
    <g>
      <path class="cls-1" d="M0,150.81v-18.75h6.56c1.74,0,3.09.46,4.05,1.39.96.93,1.44,2.21,1.44,3.84,0,.88-.22,1.67-.65,2.41-.45.73-1.03,1.27-1.77,1.61.75.27,1.39.81,1.91,1.61.51.8.77,1.7.77,2.68,0,1.62-.48,2.89-1.44,3.82-.97.93-2.31,1.4-4.05,1.4H0ZM2.28,140.5h4.16c1.01,0,1.82-.3,2.43-.9.61-.6.92-1.37.92-2.33s-.31-1.71-.93-2.31c-.61-.59-1.42-.89-2.42-.89H2.28v6.43ZM2.28,148.8h4.42c1.01,0,1.82-.3,2.43-.9.61-.59.92-1.36.92-2.31s-.3-1.71-.92-2.31c-.62-.59-1.43-.89-2.43-.89H2.28v6.42Z"/>
      <path class="cls-1" d="M16.72,150.81v-2.01h4.01v-14.72h-4.01v-2.01h10.32v2.01h-4.01v14.72h4.01v2.01h-10.32Z"/>
      <path class="cls-1" d="M32.11,150.81v-18.75h11.25v2.01h-8.97v6.29h8.43v2.01h-8.43v6.42h9.25v2.01h-11.52Z"/>
      <path class="cls-1" d="M48.16,150.81v-18.75h3.35l4.66,12.13,1.63,4.21h.27l-.67-4.55v-11.79h2.28v18.75h-3.35l-4.67-12.11-1.63-4.22h-.26l.67,4.58v11.76h-2.28Z"/>
      <path class="cls-1" d="M64.22,150.81v-18.75h11.25v2.01h-8.97v6.29h8.43v2.01h-8.43v6.42h9.25v2.01h-11.52Z"/>
      <path class="cls-1" d="M81.74,149.71c-1.23-.9-1.94-2.24-2.13-3.99h2.28c.41,2.21,2.07,3.35,4.42,3.35,1.41,0,2.42-.33,3.01-.97.59-.64.88-1.44.88-2.38,0-1.29-.8-2.17-1.99-2.62-1.2-.44-2.67-.75-4.09-1.23-1.42-.48-2.68-1.12-3.41-2.5-.37-.68-.55-1.52-.55-2.5,0-1.46.52-2.68,1.58-3.65,1.06-.96,2.49-1.44,4.3-1.44,1.66,0,3.03.39,4.12,1.16,1.08.77,1.71,2,1.91,3.66h-2.28c-.12-.85-.52-1.54-1.2-2.05s-1.53-.76-2.55-.76c-1.16,0-2.05.29-2.67.85-.63.58-.94,1.32-.94,2.22,0,.78.25,1.43.76,1.94.5.51,1.11.88,1.86,1.07.75.21,1.54.44,2.41.71.86.27,1.66.56,2.41.86s1.36.82,1.87,1.54c.5.72.75,1.63.75,2.72,0,1.5-.54,2.76-1.61,3.79s-2.59,1.56-4.55,1.56c-1.82,0-3.35-.46-4.56-1.36Z"/>
      <path class="cls-1" d="M101.01,150.81v-16.74h-3.48v3.22h-2.28v-5.23h13.67v5.23h-2.28v-3.22h-3.35v16.74h-2.29Z"/>
      <path class="cls-1" d="M110.91,150.81l6.03-18.75h2.42l6.02,18.75h-2.28l-1.52-4.68h-6.87l-1.52,4.68h-2.29ZM115.33,144.11h5.62l-2.25-7.1-.42-2.68h-.27l-.43,2.68-2.25,7.1Z"/>
      <path class="cls-1" d="M128.44,150.81v-18.75h6.56c1.8,0,3.24.52,4.3,1.56,1.06,1.03,1.58,2.39,1.58,4.07s-.51,3.05-1.53,3.98c-1.03.94-2.21,1.49-3.56,1.66l5.36,7.49h-2.55l-5.35-7.49h-2.55v7.49h-2.28ZM130.71,141.3h4.16c2.39,0,3.74-1.32,3.74-3.62s-1.35-3.61-3.74-3.61h-4.16v7.23Z"/>
    </g>
    <g>
      <g>
        <path class="cls-1" d="M73.43,61.09c-3.69.6-7.25.43-10.64-1.23-5.47-2.69-8.46-8.61-7.32-14.39,1.23-6.24,6.33-10.71,12.64-11.08.62-.04,1.24,0,1.86,0,5.84.03,10.61,2.11,13.33,7.55,4.05,8.08-.98,17.7-9.87,19.15Z"/>
        <path class="cls-1" d="M71.84,28c-2,.32-3.93.23-5.77-.67-2.97-1.46-4.58-4.67-3.97-7.8.67-3.38,3.43-5.8,6.85-6,.34-.02.67,0,1.01,0,3.17.01,5.75,1.14,7.22,4.09,2.2,4.38-.53,9.59-5.35,10.38Z"/>
        <path class="cls-1" d="M70.91,7.24c-1,.16-1.97.12-2.88-.33-1.48-.73-2.29-2.33-1.98-3.9.33-1.69,1.72-2.9,3.43-3,.17-.01.34,0,.51,0,1.58,0,2.87.57,3.61,2.05,1.1,2.19-.26,4.8-2.67,5.19Z"/>
      </g>
      <path class="cls-1" d="M109.05,65.23c.65,0,1.17.6,1.06,1.24-.52,3.02-1.51,5.76-2.96,8.17-1.75,3-3.98,5.65-6.68,7.9-.78.64-1.59,1.22-2.42,1.81-3.78,2.62-8.1,4.51-12.96,5.79-4.87,1.28-9.9,1.89-15.11,1.89s-10.21-.61-15.11-1.89c-4.9-1.28-9.24-3.17-12.99-5.79-.83-.58-1.61-1.17-2.36-1.81-2.67-2.25-4.9-4.9-6.68-7.9-1.25-2.09-2.14-4.4-2.7-6.95-.03-.14-.12-.52-.13-.66-.06-.51-.44-1.8.08-1.79,13.88.12,78.96,0,78.96,0Z"/>
    </g>
  </g>
</svg>