<?xml version="1.0" encoding="UTF-8"?>
<svg id="Layer_2" data-name="Layer 2" xmlns="http://www.w3.org/2000/svg" viewBox="0 0 93.94 150.57">
  <defs>
    <style>
      .cls-1 {
        fill: #414141;
        stroke-width: 0px;
      }
    </style>
  </defs>
  <g id="Layer_1-2" data-name="Layer 1">
    <g>
      <path class="cls-1" d="M1.87,148.16c-1.24-1.61-1.87-4.01-1.87-7.23s.63-5.62,1.88-7.23c1.24-1.61,2.89-2.41,4.94-2.41,3.18,0,5.35,1.83,6.33,5.22h-2.28c-.75-2.14-2.11-3.22-4.05-3.2-1.37,0-2.48.6-3.31,1.82-.82,1.22-1.24,3.15-1.24,5.81s.42,4.59,1.26,5.81c.82,1.22,1.92,1.83,3.3,1.83,2.24,0,3.66-1.39,4.29-4.16h2.28c-.93,4.18-3.26,6.16-6.56,6.16-2.05,0-3.71-.8-4.96-2.41Z"/>
      <path class="cls-1" d="M22.89,150.57c-1.94,0-3.43-.6-4.46-1.79-1.05-1.19-1.57-3.01-1.57-5.43v-11.79h2.28v11.79c0,3.48,1.26,5.22,3.75,5.22s3.74-1.74,3.74-5.22v-11.79h2.28v11.79c0,2.43-.52,4.24-1.56,5.43-1.05,1.19-2.54,1.79-4.46,1.79Z"/>
      <path class="cls-1" d="M33.18,150.31v-18.75h11.25v2.01h-8.97v6.29h8.43v2.01h-8.43v6.42h9.25v2.01h-11.52Z"/>
      <path class="cls-1" d="M49.24,150.31v-18.75h6.56c1.8,0,3.24.52,4.3,1.56,1.06,1.03,1.58,2.39,1.58,4.07s-.51,3.05-1.53,3.98c-1.03.94-2.21,1.49-3.56,1.66l5.36,7.49h-2.55l-5.35-7.49h-2.55v7.49h-2.28ZM51.51,140.8h4.16c2.39,0,3.74-1.32,3.74-3.62s-1.35-3.61-3.74-3.61h-4.16v7.23Z"/>
      <path class="cls-1" d="M65.29,150.31v-18.75h6.29c1.84,0,3.31.55,4.39,1.66,1.09,1.11,1.63,2.52,1.63,4.24s-.55,3.12-1.63,4.24c-1.08,1.11-2.55,1.66-4.39,1.66h-4.01v6.96h-2.28ZM67.57,141.34h3.88c1.19,0,2.14-.34,2.84-1.03.69-.69,1.05-1.63,1.05-2.85s-.35-2.16-1.05-2.85c-.69-.69-1.65-1.03-2.84-1.03h-3.88v7.77Z"/>
      <path class="cls-1" d="M87.11,150.57c-2.05,0-3.71-.8-4.96-2.41-1.25-1.61-1.88-4.01-1.88-7.23s.63-5.62,1.88-7.23c1.24-1.61,2.9-2.41,4.96-2.41s3.7.8,4.96,2.41c1.24,1.61,1.87,4.03,1.87,7.23s-.63,5.62-1.87,7.23c-1.25,1.61-2.9,2.41-4.96,2.41ZM87.11,148.57c1.37,0,2.47-.61,3.31-1.83.82-1.22,1.24-3.15,1.24-5.81s-.42-4.59-1.24-5.81c-.84-1.22-1.94-1.82-3.31-1.82s-2.48.6-3.31,1.82c-.84,1.22-1.25,3.15-1.25,5.81s.42,4.59,1.25,5.81c.82,1.22,1.94,1.83,3.31,1.83Z"/>
    </g>
    <g>
      <path class="cls-1" d="M92.01,75.08c.2,1.21-.64,2.33-1.63,2.07-4.62-1.2-9.16-.64-13.25.78-4.62,1.65-8.77,4.34-13.08,6.72-.31.17-.67.36-.98.56-4.65,2.49-9.69,4.48-15.32,4.15-.25-.03-.53-.03-.78-.06-.28.03-.53.03-.81.06-5.6.34-10.65-1.65-15.3-4.15-.34-.2-.67-.39-.98-.56-4.31-2.38-8.46-5.07-13.08-6.72-4.09-1.43-8.66-1.99-13.28-.78-.95.25-1.82-.87-1.6-2.07.42-2.38,1.09-4.57,2.02-6.53,1.68-3.64,3.95-6.7,6.75-9.13,2.41-2.1,5.18-3.73,8.24-4.93-.2-.17-.39-.31-.56-.48-2.83-2.44-5.1-5.49-6.78-9.1-1.51-3.22-2.38-7-2.52-11.29-.03-.5.14-1.01.42-1.37,4.29-5.15,10.17-7.84,15.41-8.15,5.63-.36,10.65,1.65,15.32,4.15.31.17.64.36.98.53,1.96,1.09,3.92,2.27,5.88,3.36,1.99-1.09,3.92-2.27,5.91-3.36.34-.17.67-.36.98-.53,4.68-2.49,9.69-4.51,15.32-4.15,5.24.31,11.09,3,15.41,8.15.28.36.45.87.42,1.37-.14,4.29-1.01,8.07-2.52,11.29-1.68,3.61-3.95,6.67-6.78,9.1-.22.2-.45.36-.67.53,3.03,1.21,5.69,2.8,8.1,4.88,2.8,2.44,5.04,5.49,6.75,9.13.92,1.96,1.6,4.15,2.02,6.53Z"/>
      <path class="cls-1" d="M48.84,14.58c-2.01.33-3.96.23-5.81-.67-2.99-1.47-4.62-4.7-4-7.85C39.71,2.65,42.5.21,45.94.01c.34-.02.68,0,1.02,0,3.19.01,5.79,1.15,7.27,4.12,2.21,4.41-.53,9.66-5.39,10.45Z"/>
    </g>
  </g>
</svg>