<svg width="91" height="90" viewBox="0 0 91 90" fill="none" xmlns="http://www.w3.org/2000/svg">
<path d="M90.1244 75.0789C90.3244 76.2889 89.4844 77.4089 88.4944 77.1489C83.8744 75.9489 79.3344 76.5089 75.2444 77.9289C70.6244 79.5789 66.4744 82.2689 62.1644 84.6489C61.8544 84.8189 61.4944 85.0089 61.1844 85.2089C56.5344 87.6989 51.4944 89.6889 45.8644 89.3589C45.6144 89.3289 45.3344 89.3289 45.0844 89.2989C44.8044 89.3289 44.5544 89.3289 44.2744 89.3589C38.6744 89.6989 33.6244 87.7089 28.9744 85.2089C28.6344 85.0089 28.3044 84.8189 27.9944 84.6489C23.6844 82.2689 19.5344 79.5789 14.9144 77.9289C10.8244 76.4989 6.25442 75.9389 1.63442 77.1489C0.684421 77.3989 -0.185579 76.2789 0.0344213 75.0789C0.454421 72.6989 1.12442 70.5089 2.05442 68.5489C3.73442 64.9089 6.00442 61.8489 8.80442 59.4189C11.2144 57.3189 13.9844 55.6889 17.0444 54.4889C16.8444 54.3189 16.6544 54.1789 16.4844 54.0089C13.6544 51.5689 11.3844 48.5189 9.70442 44.9089C8.19442 41.6889 7.32442 37.9089 7.18442 33.6189C7.15442 33.1189 7.32442 32.6089 7.60442 32.2489C11.8944 27.0989 17.7744 24.4089 23.0144 24.0989C28.6444 23.7389 33.6644 25.7489 38.3344 28.2489C38.6444 28.4189 38.9744 28.6089 39.3144 28.7789C41.2744 29.8689 43.2344 31.0489 45.1944 32.1389C47.1844 31.0489 49.1144 29.8689 51.1044 28.7789C51.4444 28.6089 51.7744 28.4189 52.0844 28.2489C56.7644 25.7589 61.7744 23.7389 67.4044 24.0989C72.6444 24.4089 78.4944 27.0989 82.8144 32.2489C83.0944 32.6089 83.2644 33.1189 83.2344 33.6189C83.0944 37.9089 82.2244 41.6889 80.7144 44.9089C79.0344 48.5189 76.7644 51.5789 73.9344 54.0089C73.7144 54.2089 73.4844 54.3689 73.2644 54.5389C76.2944 55.7489 78.9544 57.3389 81.3644 59.4189C84.1644 61.8589 86.4044 64.9089 88.1144 68.5489C89.0344 70.5089 89.7144 72.6989 90.1344 75.0789H90.1244Z" fill="#414141"/>
<path d="M46.9544 14.5789C44.9444 14.9089 42.9944 14.8089 41.1444 13.9089C38.1544 12.4389 36.5244 9.20889 37.1444 6.05889C37.8244 2.64889 40.6144 0.208889 44.0544 0.00888889C44.3944 -0.0111111 44.7344 0.00888889 45.0744 0.00888889C48.2644 0.0188889 50.8644 1.15889 52.3444 4.12889C54.5544 8.53889 51.8144 13.7889 46.9544 14.5789Z" fill="#414141"/>
</svg>
