<?xml version="1.0" encoding="UTF-8"?>
<svg id="Layer_1" data-name="Layer 1" xmlns="http://www.w3.org/2000/svg" viewBox="0 0 500 500">
  <defs>
    <style>
      .cls-1 {
        fill: #f2f0e5;
        stroke-width: 0px;
      }
    </style>
  </defs>
  <path class="cls-1" d="M58.34,363.04v-175.91c.56.24,1.17.4,1.66.73,51.86,34.57,103.71,69.16,155.56,103.74,22.6,15.07,46.03,15.19,68.52.2,51.25-34.13,102.47-68.3,153.7-102.45,1.09-.73,2.22-1.41,3.8-2.42v3.05c0,55.88.02,111.77-.05,167.65,0,3.08-.37,6.25-1.12,9.24-4.14,16.43-18.04,26.7-36.06,26.71-51.02.03-102.04,0-153.05,0s-103.78-.02-155.67.02c-10.16,0-19.1-2.98-26.56-10.05-5.94-5.62-8.89-12.77-10.73-20.52Z"/>
  <path class="cls-1" d="M58.34,136.98c.62-2.14,1.15-4.3,1.86-6.41,4.72-14.02,17.23-23.3,32.44-24.09,1.24-.07,2.49-.05,3.74-.05,102.41,0,204.83.02,307.24-.04,10.86,0,20.43,2.96,28.05,10.93,15.2,15.9,12.77,40.3-5.48,52.68-23.21,15.74-46.64,31.17-69.97,46.73-27.9,18.6-55.79,37.21-83.7,55.8-16.05,10.69-29.03,10.69-45.06,0-49.17-32.77-98.24-65.69-147.57-98.21-10.52-6.94-18.97-14.82-21.56-27.62,0-3.24,0-6.49,0-9.73Z"/>
</svg>