<svg width="89" height="97" viewBox="0 0 89 97" fill="none" xmlns="http://www.w3.org/2000/svg">
<path d="M87.5135 36.9913C82.7335 7.85132 51.2535 -8.61868 24.7735 4.65132C6.96346 13.5713 0.113461 29.1613 0.0434609 48.3013C0.0434609 50.3513 -0.0665386 52.3713 0.0634614 54.4013C1.28346 75.0813 15.9335 91.7913 36.3435 95.8213C55.2635 99.5413 74.6735 89.7713 83.4635 71.8313C88.9135 60.7413 89.4535 49.0613 87.5135 36.9813V36.9913ZM41.3935 28.0113C41.6335 26.7813 42.6435 25.8913 43.9035 25.8113C44.0335 25.7913 44.1535 25.8113 44.2635 25.8113C45.4235 25.8113 46.3735 26.2313 46.9135 27.3013C47.7335 28.9213 46.7335 30.8213 44.9535 31.1113C44.2235 31.2213 43.5235 31.2013 42.8435 30.8613C41.7535 30.3313 41.1535 29.1513 41.3935 28.0113ZM38.5035 40.1213C38.9935 37.6513 41.0235 35.8713 43.5335 35.7313C43.7735 35.7113 44.0235 35.7313 44.2635 35.7313C46.5835 35.7313 48.4735 36.5713 49.5635 38.7313C51.1835 41.9413 49.1835 45.7613 45.6435 46.3413C44.1735 46.5813 42.7535 46.5013 41.4135 45.8513C39.2535 44.7813 38.0535 42.4413 38.5035 40.1313V40.1213ZM46.8035 70.5913C44.0935 71.0313 41.4835 70.9013 38.9935 69.6813C34.9835 67.7013 32.8035 63.3613 33.6335 59.1313C34.5435 54.5513 38.2635 51.2913 42.8935 51.0113C43.3435 50.9713 43.8035 51.0113 44.2535 51.0113C48.5435 51.0313 52.0435 52.5513 54.0235 56.5513C57.0035 62.4713 53.3135 69.5213 46.7935 70.5913H46.8035Z" fill="#414141"/>
</svg>
