<?xml version="1.0" encoding="UTF-8"?>
<svg id="Layer_2" data-name="Layer 2" xmlns="http://www.w3.org/2000/svg" viewBox="0 0 124.17 154.98">
  <defs>
    <style>
      .cls-1 {
        fill: #414141;
        stroke-width: 0px;
      }
    </style>
  </defs>
  <g id="Layer_1-2" data-name="Layer 1">
    <g>
      <path class="cls-1" d="M0,154.71v-18.75h11.25v2.01H2.28v6.29h8.43v2.01H2.28v6.42h9.25v2.01H0Z"/>
      <path class="cls-1" d="M17.52,153.62c-1.23-.9-1.94-2.24-2.13-3.99h2.28c.41,2.21,2.07,3.35,4.42,3.35,1.41,0,2.42-.33,3.01-.97.59-.64.88-1.44.88-2.38,0-1.29-.8-2.17-1.99-2.62-1.2-.44-2.67-.75-4.09-1.23-1.42-.48-2.68-1.12-3.41-2.5-.37-.68-.55-1.52-.55-2.5,0-1.46.52-2.68,1.58-3.65,1.06-.96,2.49-1.44,4.3-1.44,1.66,0,3.03.39,4.12,1.16,1.08.77,1.71,2,1.91,3.66h-2.28c-.12-.85-.52-1.54-1.2-2.05s-1.53-.76-2.55-.76c-1.16,0-2.05.29-2.67.85-.63.58-.94,1.32-.94,2.22,0,.78.25,1.43.76,1.94.5.51,1.11.88,1.86,1.07.75.21,1.54.44,2.41.71.86.27,1.66.56,2.41.86s1.36.82,1.87,1.54c.5.72.75,1.63.75,2.72,0,1.5-.54,2.76-1.61,3.79s-2.59,1.56-4.55,1.56c-1.82,0-3.35-.46-4.56-1.36Z"/>
      <path class="cls-1" d="M32.11,154.71v-18.75h6.29c1.84,0,3.31.55,4.39,1.66,1.09,1.11,1.63,2.52,1.63,4.24s-.55,3.12-1.63,4.24c-1.08,1.11-2.55,1.66-4.39,1.66h-4.01v6.96h-2.28ZM34.38,145.74h3.88c1.19,0,2.14-.34,2.84-1.03.69-.69,1.05-1.63,1.05-2.85s-.35-2.16-1.05-2.85c-.69-.69-1.65-1.03-2.84-1.03h-3.88v7.77Z"/>
      <path class="cls-1" d="M48.83,154.71v-2.01h4.01v-14.72h-4.01v-2.01h10.32v2.01h-4.01v14.72h4.01v2.01h-10.32Z"/>
      <path class="cls-1" d="M64.22,154.71v-18.75h6.56c1.8,0,3.24.52,4.3,1.56,1.06,1.03,1.58,2.39,1.58,4.07s-.51,3.05-1.53,3.98c-1.03.94-2.21,1.49-3.56,1.66l5.36,7.49h-2.55l-5.35-7.49h-2.55v7.49h-2.28ZM66.49,145.21h4.16c2.39,0,3.74-1.32,3.74-3.62s-1.35-3.61-3.74-3.61h-4.16v7.23Z"/>
      <path class="cls-1" d="M80.94,154.71v-2.01h4.01v-14.72h-4.01v-2.01h10.32v2.01h-4.01v14.72h4.01v2.01h-10.32Z"/>
      <path class="cls-1" d="M101.01,154.71v-16.74h-3.48v3.22h-2.28v-5.23h13.67v5.23h-2.28v-3.22h-3.35v16.74h-2.29Z"/>
      <path class="cls-1" d="M118.15,154.98c-1.94,0-3.43-.6-4.46-1.79-1.05-1.19-1.57-3.01-1.57-5.43v-11.79h2.28v11.79c0,3.48,1.26,5.22,3.75,5.22s3.74-1.74,3.74-5.22v-11.79h2.28v11.79c0,2.43-.52,4.24-1.56,5.43-1.05,1.19-2.54,1.79-4.46,1.79ZM117.21,134.09l2.41-3.75h2.55l-3.09,3.75h-1.87Z"/>
    </g>
    <path class="cls-1" d="M105.19,36.99C100.41,7.85,68.93-8.62,42.45,4.65c-17.81,8.92-24.66,24.51-24.73,43.65,0,2.05-.11,4.07.02,6.1,1.22,20.68,15.87,37.39,36.28,41.42,18.92,3.72,38.33-6.05,47.12-23.99,5.45-11.09,5.99-22.77,4.05-34.85ZM59.07,28.01c.24-1.23,1.25-2.12,2.51-2.2.13-.02.25,0,.36,0,1.16,0,2.11.42,2.65,1.49.82,1.62-.18,3.52-1.96,3.81-.73.11-1.43.09-2.11-.25-1.09-.53-1.69-1.71-1.45-2.85ZM56.18,40.12c.49-2.47,2.52-4.25,5.03-4.39.24-.02.49,0,.73,0,2.32,0,4.21.84,5.3,3,1.62,3.21-.38,7.03-3.92,7.61-1.47.24-2.89.16-4.23-.49-2.16-1.07-3.36-3.41-2.91-5.72ZM64.48,70.59c-2.71.44-5.32.31-7.81-.91-4.01-1.98-6.19-6.32-5.36-10.55.91-4.58,4.63-7.84,9.26-8.12.45-.04.91,0,1.36,0,4.29.02,7.79,1.54,9.77,5.54,2.98,5.92-.71,12.97-7.23,14.04Z"/>
  </g>
</svg>