<?xml version="1.0" encoding="UTF-8"?>
<svg id="Layer_1" data-name="Layer 1" xmlns="http://www.w3.org/2000/svg" viewBox="0 0 500 500">
  <defs>
    <style>
      .cls-1 {
        fill: #f2f0e5;
        stroke-width: 0px;
      }
    </style>
  </defs>
  <path class="cls-1" d="M338.57,414.3h-177.09c-6.15-1.3-12.47-2.06-18.41-3.99-34.55-11.23-57.16-42.24-57.26-78.7-.15-54.43-.08-108.87-.02-163.3.02-17.48,4.86-33.59,15.21-47.75,17.02-23.29,40.18-34.8,68.98-34.83,52.93-.05,105.85-.05,158.78.04,5.54,0,11.16.25,16.59,1.24,30.35,5.53,51.54,22.76,63.11,51.27,2.97,7.31,3.94,15.42,5.83,23.16v177.13c-.41,2.29-.79,4.59-1.22,6.88-5.68,30.16-22.76,51.28-51.03,62.91-7.38,3.04-15.62,4.01-23.46,5.94ZM181.57,250.02c.02,37.61,30.49,68.14,68.31,68.46,37.43.31,68.64-30.84,68.61-68.48-.03-37.61-30.5-68.15-68.31-68.46-37.46-.3-68.62,30.8-68.6,68.48ZM339.01,181.46c11.22,0,20.34-9.02,20.51-20.29.17-11.16-9.27-20.68-20.53-20.68-11.16,0-20.35,9.16-20.43,20.37-.09,11.4,9.05,20.6,20.45,20.6Z"/>
</svg>