<?xml version="1.0" encoding="UTF-8"?>
<svg id="Layer_2" data-name="Layer 2" xmlns="http://www.w3.org/2000/svg" viewBox="0 0 49.51 48.72">
  <defs>
    <style>
      .cls-1 {
        fill: #231f20;
        stroke-width: 0px;
      }
    </style>
  </defs>
  <g id="Layer_1-2" data-name="Layer 1">
    <g>
      <path class="cls-1" d="M27.32,47.2c-.48-1.32-.29-2.74-.28-4.13,0,.69,0,1.39,0,2.08,0,.68.14,1.35.28,2.05Z"/>
      <path class="cls-1" d="M49.51,48.61c-1.05,0-2.13-.12-3.17.02-3.03.43-5.23-.75-7.36-2.89-5.75-5.78-7.59-16.13-3.67-23.23,1.63-2.94,3.8-5.56,5.41-8.5.85-1.57,1.34-3.49,1.45-5.28.19-3.29-1.9-5.81-5.21-6.86-3.04-.97-6.17-.98-9.43-.87-.14,0-.29,0-.44.01-.03.52-.08,1-.08,1.46,0,13.45-.01,26.92.02,40.37v.23c-.01,1.39-.2,2.81.28,4.13,0,0,.01.01,0,.02.09.42.18.85.25,1.28h-5.64c.08-.46.18-.9.27-1.35.47-1.3.29-2.71.27-4.08,0-.08,0-.16,0-.24.04-13.45.02-26.92.01-40.37,0-.47-.04-.94-.07-1.46-.14,0-.29-.01-.44-.01-3.26-.11-6.39-.09-9.43.87-3.31,1.05-5.39,3.57-5.2,6.86.11,1.79.59,3.71,1.45,5.28,1.6,2.94,3.79,5.57,5.41,8.5,3.92,7.1,2.08,17.45-3.67,23.23-2.14,2.14-4.33,3.32-7.37,2.89-1.04-.14-2.11-.02-3.17-.02.7-.75,1.41-1.2,2.1-1.68,4.2-2.93,8.24-6.05,11.02-10.44,2.69-4.27,3.21-9.67-.7-13.84-1.45-1.55-2.94-3.07-4.38-4.63-1.33-1.43-2.73-2.81-3.87-4.38-2.18-3.01-2.06-7.29.14-9.73C6.12,1.91,8.57.9,11.13.69c3.57-.28,7.15-.43,10.67-.57,1-.04,1.98-.08,2.96-.12.97.04,1.96.08,2.95.12,3.52.14,7.11.29,10.68.57,2.56.21,5.01,1.22,6.82,3.22,2.2,2.44,2.31,6.73.14,9.73-1.13,1.57-2.54,2.94-3.86,4.38-1.44,1.56-2.92,3.09-4.38,4.63-3.91,4.17-3.4,9.57-.7,13.84,2.77,4.39,6.82,7.51,11.01,10.44.69.48,1.4.93,2.1,1.68Z"/>
      <path class="cls-1" d="M22.48,43.08c.01,1.37.19,2.77-.27,4.08.14-.68.27-1.34.27-2.01,0-.69,0-1.38,0-2.07Z"/>
    </g>
  </g>
</svg>