<?xml version="1.0" encoding="UTF-8"?>
<svg id="Layer_1" data-name="Layer 1" xmlns="http://www.w3.org/2000/svg" viewBox="0 0 500 500">
  <defs>
    <style>
      .cls-1 {
        fill: #f2f0e5;
        stroke-width: 0px;
      }
    </style>
  </defs>
  <path class="cls-1" d="M247.75,442c-22.16-21.13-42.45-43.95-61.5-67.87-22.29-27.97-42.48-57.32-58.11-89.59-9.88-20.39-17.77-41.45-20.78-64.06-4.43-33.28,2.24-64.39,19.87-92.79,23.27-37.49,57.16-60.01,100.75-67.2,57.61-9.5,116.67,18.62,145.99,69.08,23.07,39.71,25.55,81.25,10.63,124.27-11.13,32.09-28.01,61.11-47.33,88.81-24.06,34.49-51.41,66.22-81.25,95.84-1.22,1.21-2.51,2.34-3.77,3.51h-4.5ZM250.13,268.33c35.98.05,65.74-29.48,65.86-65.35.13-36.52-29.36-66.38-65.56-66.38-36.84,0-66.34,29.27-66.42,65.9-.08,36.24,29.59,65.78,66.12,65.83Z"/>
</svg>