<?xml version="1.0" encoding="UTF-8"?>
<svg id="Layer_2" data-name="Layer 2" xmlns="http://www.w3.org/2000/svg" viewBox="0 0 354.67 74.4">
  <defs>
    <style>
      .cls-1 {
        fill: #f0eee3;
        stroke-width: 0px;
      }
    </style>
  </defs>
  <g id="Layer_1-2" data-name="Layer 1">
    <g>
      <g>
        <path class="cls-1" d="M190.43,19.3c2.26-.61,4.99-1.33,7.9-2.11v8.72c2.21-1.93,4.14-3.9,6.35-5.49,5.48-3.96,13.14-4.38,18.21-1.18,2.31,1.46,3.14,2.54,5.36,7.01,1.62-1.52,3.24-3.11,4.94-4.62,5.16-4.59,12.89-5.81,18.75-2.93,4.81,2.36,6.81,6.64,7.06,11.62.36,7.01.3,14.05.36,21.08.05,5.77-.05,11.55.05,17.32.03,1.58.56,3.15.88,4.83h-8.76c.33-1.69.96-3.43.97-5.17.07-11.88.04-23.75,0-35.63-.05-11.67-8.64-13.86-16.47-10.63-2.52,1.04-4.54,3.3-6.71,5.1-.41.34-.61,1.16-.6,1.75.09,6.42.29,12.85.36,19.27.07,6.57-.06,13.14.06,19.7.03,1.87.63,3.73.98,5.65h-8.85c.36-1.41.99-2.78,1-4.15.05-12.6.11-25.21-.07-37.81-.15-10.48-8.56-12.39-15.71-9.82-2.95,1.06-5.3,2.99-7.25,5.38-.49.6-.82,1.53-.82,2.31-.05,12.94-.07,25.88.01,38.81.01,1.74.65,3.47,1.01,5.27h-8.69c.29-1.84.81-3.67.82-5.5.07-14.6.07-29.19-.01-43.79,0-1.53-.68-3.06-1.14-4.97Z"/>
        <path class="cls-1" d="M.48.76c8.09.37,16.51.56,24.9,1.22,3.84.3,7.49,1.82,10.2,4.82,3.3,3.65,3.47,10.06.21,14.57-1.7,2.35-3.81,4.4-5.78,6.55-2.16,2.34-4.38,4.62-6.56,6.94-5.85,6.23-5.08,14.32-1.05,20.7,4.15,6.58,10.21,11.23,16.48,15.62,1.03.72,2.1,1.4,3.14,2.52-1.58,0-3.19-.18-4.75.03-4.54.64-7.83-1.12-11.02-4.34-8.61-8.65-11.36-24.13-5.49-34.76,2.43-4.39,5.69-8.32,8.1-12.72,1.28-2.35,2.01-5.22,2.16-7.9.29-4.92-2.83-8.69-7.79-10.27-4.76-1.52-9.65-1.47-14.76-1.29-.04.78-.12,1.49-.12,2.19,0,21.29-.02,42.58.03,63.87,0,1.64.51,3.28.81,5.01H0c2.17-2.55,1.56-5.58,1.57-8.48.03-19.43.04-38.87-.03-58.3,0-1.81-.62-3.63-1.06-5.99Z"/>
        <path class="cls-1" d="M100.77,44.58c.32-10.67,5.37-19.82,16.32-25.2,10.96-5.39,25.93-.93,32.4,9.6,7,11.41,6.99,22.99-.35,34.18-4.4,6.71-10.97,10.42-19.09,11.01-11.29.83-19.74-3.83-25.52-13.45-2.42-4.02-3.59-8.83-3.76-16.15ZM108.11,45.84c-.05,4.69.71,9.23,2.5,13.58,2.18,5.3,5.37,9.84,10.77,12.18,7.5,3.25,15.39.53,20.27-6.66,7.3-10.75,7.24-27.82-.11-38.53-6.89-10.03-18.41-10.87-26.41-1.76-5.29,6.02-6.96,13.38-7.02,21.19Z"/>
        <path class="cls-1" d="M351.65,71.78c-6.03-3.41-11.85-7.02-15.84-12.13-3.88-4.95-4.61-11.24,1.01-16.08,2.09-1.8,4.23-3.57,6.3-5.38,1.89-1.67,3.92-3.26,5.55-5.09,3.13-3.5,2.97-8.48-.2-11.31-2.61-2.33-6.12-3.51-9.8-3.74-8.06-.52-16.16-.66-23.93-.95.42,1.83,1.01,3.24,1.01,4.65.04,8.81.05,17.63.05,26.44-.41.84-.84,1.75-1.29,2.69-1.32,2.78-2.78,5.78-4.1,7.76-2.34,3.53-5.08,5.95-5.08,5.95l-.52.53-.03.02-.02.02c-1.54,1.26-2.84,1.95-4.61,2.58-10.31,3.65-20.91-1.18-25.15-11.4-3.14-7.58-3.13-15.29-1.41-23.3h34.74c.58-5.77-2.52-11.62-7.24-13.8-10.42-4.82-23.2-1.23-29.82,9.38-4.53,7.26-5.65,15.22-4.19,23.51,1.96,11.11,8.75,19.54,19.52,21.79,5.3,1.11,10.35.29,14.43-2.2.55-.33,1.09-.7,1.6-1.1,0,0,.01,0,.02-.01.74-.57,1.43-1.2,2.07-1.89l.05-.05c.14-.14.38-.37.7-.67.01-.01.01-.02.02-.02,1.38-1.33,4.13-4.08,6.15-7.31.97-1.55,1.93-3.21,2.86-4.91.44-.8.87-1.61,1.29-2.41,0,4.56,0,9.12-.01,13.68,0,2.25.58,4.6-1.51,6.58h8.84c-.28-1.35-.77-2.62-.77-3.89-.05-16.54-.04-33.07-.03-49.6,0-.55.07-1.09.11-1.7,4.91-.15,9.61-.18,14.19,1,4.76,1.22,7.76,4.14,7.48,7.97-.15,2.08-.85,4.31-2.08,6.13-2.31,3.42-5.45,6.47-7.78,9.89-5.64,8.25-2.99,20.27,5.28,26.99,3.07,2.49,6.23,3.86,10.59,3.36,1.5-.16,3.04-.02,4.57-.02-1.01-.88-2.03-1.4-3.02-1.96ZM294.71,18.83c3.76.8,6.18,3.32,6.64,6.93.36,2.87-.82,4.74-3.56,5.57-.7.2-1.43.41-2.14.41-6.38.05-12.76.06-19.14.08h-2.33c2.6-9.51,11.34-14.93,20.53-12.99Z"/>
        <path class="cls-1" d="M77.68,61.14c-.09.15-.19.3-.29.44.18-.21.36-.43.55-.66-.11.07-.2.13-.26.22Z"/>
        <path class="cls-1" d="M96.72,6.01c4.41-.45,8.71.23,12.91,1.98.57-2.6-.36-4.44-2.22-5.88-3.61-2.79-9.12-2.76-13.29-.22-4.06,2.48-6.06,6.32-7.55,10.57-1.06,2.99-2.94,4.99-6.28,5.29-.45.04-.89.26-1.33.39.01.23.02.47.03.7,1.94.1,3.89.21,6.02.33v2.47c0,8.83.01,17.66.01,26.5-.42.85-.86,1.78-1.32,2.74-1.32,2.78-2.78,5.78-4.09,7.76-.55.83-1.12,1.6-1.67,2.28-.19.23-.37.45-.55.66-.01.02-.02.03-.04.04-1.07,1.62-2.38,2.94-3.84,3.99-5.17,3.73-12.18,3.99-17.7,2.12-5.59-1.89-9.23-5.86-11.48-11.1-3.28-7.63-3.44-15.5-1.47-23.59h20.09c4.39,0,8.78,0,13.17.01.98.01,1.66-.09,1.63-1.37-.11-5.93-3.42-11.07-8.97-13.08-11.95-4.32-24.8,1.14-30.27,13.74-3.94,9.08-3.64,18.29.11,27.41,4.4,10.73,16.16,16.72,27.32,13.92,2.06-.51,4.13-1.63,5.96-3.09.11-.06.23-.12.34-.18.01,0,.02-.01.03-.01.86-.71,1.66-1.5,2.39-2.39.01-.01.01-.02.02-.02,1.38-1.33,4.13-4.08,6.16-7.31.96-1.55,1.92-3.21,2.86-4.91.44-.81.88-1.63,1.31-2.44,0,4.49-.02,8.99-.04,13.49-.01,2.27-.55,4.54-.85,6.79h8.52c-.27-2.02-.77-3.99-.78-5.95-.06-15.39-.03-30.77-.03-46.16v-2.34c5.16-.4,10.1.22,14.94-.84-.89-.48-1.77-.44-2.65-.48-4.16-.22-8.37-.13-12.45-.8-3.37-.55-4.47-3.9-2.67-6.79,1.76-2.84,4.59-3.91,7.72-4.23ZM48.63,22.96c4.98-4.42,10.76-5.77,17.12-3.43,3.33,1.22,5.07,4.08,4.89,7.38-.11,2.07-1.18,3.46-3.09,4.18-.79.3-1.65.61-2.49.61-7.15.05-14.31.03-21.67.03.93-3.52,2.65-6.48,5.24-8.77Z"/>
        <path class="cls-1" d="M185.05,17.39c-.38,1.97-.64,3.81-1.13,5.57-.14.51-.91,1.13-1.47,1.22-7.61,1.19-11.65,6.16-13.54,13.07-.86,3.14-1.15,6.51-1.23,9.78-.18,6.96-.12,13.92-.01,20.89.03,1.89.58,3.77.89,5.68h-8.56c.27-1.94.76-3.83.77-5.72.06-14.32.02-28.65.05-42.97,0-1.97.03-3.87-2.18-5.34,3.14-.86,5.85-1.6,8.84-2.41v18.99c4.06-14.04,10.02-18.78,17.56-18.77Z"/>
      </g>
      <g>
        <path class="cls-1" d="M305.47,68c-.74.89-1.53,1.68-2.4,2.39,0,0-.01.01-.02.01-.13.07-.27.14-.4.21.74-.57,1.43-1.2,2.07-1.89l.05-.05c.14-.14.38-.37.7-.67Z"/>
        <path class="cls-1" d="M77.35,61.62c-1.07,1.62-2.38,2.94-3.84,3.99l1.01-1.02s1.28-1.13,2.83-2.97Z"/>
        <path class="cls-1" d="M304.77,68.67l-.05.05c-.64.69-1.33,1.32-2.07,1.89-.01.01-.02.01-.02.01-.51.4-1.05.77-1.6,1.1.15-.06.31-.12.47-.18.54-.34,1.05-.72,1.55-1.14.01,0,.02-.01.02-.01.87-.71,1.66-1.5,2.4-2.39-.32.3-.56.53-.7.67Z"/>
      </g>
    </g>
  </g>
</svg>