<?xml version="1.0" encoding="UTF-8"?>
<svg id="Layer_2" data-name="Layer 2" xmlns="http://www.w3.org/2000/svg" viewBox="0 0 275.39 94.15">
  <defs>
    <style>
      .cls-1 {
        fill: #f0eee3;
        stroke-width: 0px;
      }
    </style>
  </defs>
  <g id="Layer_1-2" data-name="Layer 1">
    <g>
      <path class="cls-1" d="M13.07,93.84h-1.56l-3.16-9.94-3.06,9.94h-1.6l-3.69-12h1.68l2.84,9.94,3.04-9.94h1.56l3.16,9.94,2.8-9.94h1.65l-3.67,12Z"/>
      <path class="cls-1" d="M20.09,93.84v-12h8.26v1.41h-6.73v3.71h5.85v1.39h-5.85v4.1h6.94v1.39h-8.47Z"/>
      <path class="cls-1" d="M31.88,93.84v-12h1.6v10.57h5.81v1.43h-7.41Z"/>
      <path class="cls-1" d="M42.43,93.84v-12h1.6v10.57h5.81v1.43h-7.41Z"/>
      <path class="cls-1" d="M61.1,93.84l-6.58-9.76.15,9.76h-1.51v-12h1.51l6.49,9.62-.07-9.62h1.44v12h-1.44Z"/>
      <path class="cls-1" d="M66.91,93.84v-12h8.26v1.41h-6.73v3.71h5.85v1.39h-5.85v4.1h6.94v1.39h-8.47Z"/>
      <path class="cls-1" d="M87.04,92.86c-.66.65-1.75,1.29-3.79,1.29-.39,0-2.02-.02-3.28-.83-.37-.24-.71-.56-.97-.9-.71-.95-.8-2.04-.83-2.41l1.72-.22c.02.36.05,1.36.82,2.16.42.44,1.22.95,2.64.95.17,0,.63,0,1.1-.14.51-.14,1.89-.61,1.89-2.26,0-.8-.34-1.14-.61-1.36-.48-.37-1.11-.51-1.66-.63l-1.04-.22c-.87-.19-1.84-.39-2.64-.83-1.44-.78-1.63-1.87-1.63-2.58,0-.95.42-1.75,1.14-2.35,1.22-1.02,2.72-.99,3.21-.99,1.16,0,2.28.19,3.21.9.56.43.83.83.97,1.07.32.54.46,1.1.56,1.72l-1.61.1c-.02-.24-.05-.48-.12-.71-.24-.85-1-1.84-2.97-1.84-.76,0-1.8.17-2.33.8-.25.29-.41.7-.41,1.09,0,.17.03.54.29.88.46.63,1.39.82,2.09.99l1.33.32c.31.07.63.15.94.24.37.08,1.84.41,2.57,1.63.17.29.44.82.44,1.67,0,.48-.07,1.55-1,2.46Z"/>
      <path class="cls-1" d="M100.08,92.86c-.66.65-1.75,1.29-3.79,1.29-.39,0-2.02-.02-3.28-.83-.37-.24-.71-.56-.97-.9-.71-.95-.8-2.04-.83-2.41l1.72-.22c.02.36.05,1.36.82,2.16.43.44,1.23.95,2.64.95.17,0,.63,0,1.11-.14.51-.14,1.89-.61,1.89-2.26,0-.8-.34-1.14-.61-1.36-.48-.37-1.11-.51-1.67-.63l-1.04-.22c-.87-.19-1.84-.39-2.64-.83-1.44-.78-1.63-1.87-1.63-2.58,0-.95.42-1.75,1.14-2.35,1.23-1.02,2.72-.99,3.21-.99,1.16,0,2.28.19,3.21.9.56.43.83.83.97,1.07.32.54.46,1.1.56,1.72l-1.61.1c-.02-.24-.05-.48-.12-.71-.24-.85-1-1.84-2.97-1.84-.77,0-1.8.17-2.33.8-.25.29-.41.7-.41,1.09,0,.17.03.54.29.88.46.63,1.39.82,2.09.99l1.33.32c.3.07.63.15.93.24.37.08,1.84.41,2.57,1.63.17.29.44.82.44,1.67,0,.48-.07,1.55-1,2.46Z"/>
      <path class="cls-1" d="M122.25,90.44c-.31.78-1.34,2.74-3.71,3.43-.85.25-1.6.27-1.92.27-2.12,0-3.33-.85-3.98-1.44-.8-.75-1.89-2.24-1.89-4.86,0-3.74,2.26-6.31,6.07-6.31.68,0,2.94.05,4.42,1.78.49.58.8,1.19,1.05,1.89l-1.61.32c-.2-.58-.39-.9-.54-1.12-.42-.6-1.44-1.6-3.33-1.6-.29,0-1.02.03-1.75.34-2.52,1.07-2.53,3.94-2.53,4.61,0,2.89,1.38,4.25,2.55,4.74.31.12.88.31,1.75.31.2,0,.68,0,1.22-.15.48-.14,1.6-.6,2.26-1.84.19-.36.34-.75.49-1.53l1.73.2c-.03.17-.12.53-.29.95Z"/>
      <path class="cls-1" d="M125.77,93.84v-12h1.6v10.57h5.81v1.43h-7.41Z"/>
      <path class="cls-1" d="M145.45,90.9c-.1.54-.48,1.7-1.75,2.52-.49.31-1.38.73-2.79.73-.63,0-1.34-.08-1.96-.32-1.09-.41-1.97-1.31-2.33-2.43-.17-.58-.17-1-.17-2.12v-7.43h1.6v7.21c0,.46-.02.93.05,1.39.03.27.17,1.07.78,1.65.29.27.63.46,1,.58.42.12.9.12,1.04.12.29,0,1.05,0,1.78-.48,1.19-.76,1.22-2.06,1.22-3.3v-7.17h1.61v7.67c0,.12.02.83-.1,1.39Z"/>
      <path class="cls-1" d="M157.15,93.64c-.71.22-1.22.2-2.58.2h-4.69v-12h5.65c.97,0,1.82.2,2.58.87.66.56.99,1.33.99,2.21,0,.78-.25,1.46-.82,2.01-.25.24-.54.41-.65.46-.07.03-.19.08-.37.14.34.1.65.22.95.43.51.34,1.24,1.09,1.24,2.58-.02,2.16-1.53,2.89-2.29,3.11ZM156.66,83.56c-.48-.29-.85-.31-1.85-.31h-3.42v3.64h2.52c1,0,1.82-.02,2.19-.12.44-.1,1.31-.53,1.31-1.77,0-.32-.02-1-.75-1.44ZM157.64,89.54c-.14-.32-.53-.99-1.44-1.19-.53-.12-.88-.1-1.87-.1h-2.94v4.18h3.55c.66,0,1.21-.03,1.44-.1.1-.02.36-.08.61-.24.36-.22.8-.66.8-1.68,0-.15,0-.51-.15-.87Z"/>
    </g>
    <g>
      <g>
        <path class="cls-1" d="M147.89,14.98c1.76-.47,3.87-1.04,6.14-1.64v6.77c1.72-1.5,3.22-3.03,4.93-4.27,4.25-3.08,10.2-3.4,14.14-.92,1.79,1.13,2.44,1.98,4.16,5.44,1.26-1.18,2.52-2.42,3.84-3.59,4-3.57,10.01-4.51,14.56-2.27,3.73,1.83,5.28,5.15,5.48,9.02.28,5.44.23,10.91.28,16.36.04,4.48-.04,8.96.04,13.44.02,1.22.44,2.44.69,3.75h-6.8c.26-1.31.75-2.66.76-4.02.06-9.22.03-18.44,0-27.66-.04-9.06-6.71-10.76-12.79-8.26-1.95.8-3.53,2.56-5.21,3.96-.32.27-.47.9-.46,1.36.07,4.99.23,9.97.28,14.96.05,5.1-.05,10.2.05,15.3.03,1.45.49,2.9.76,4.39h-6.87c.28-1.1.77-2.16.77-3.22.04-9.79.09-19.57-.05-29.36-.12-8.13-6.65-9.62-12.2-7.62-2.29.82-4.11,2.32-5.63,4.17-.38.47-.63,1.19-.64,1.79-.04,10.04-.06,20.09,0,30.13,0,1.35.51,2.69.79,4.09h-6.75c.22-1.43.63-2.85.64-4.27.05-11.33.05-22.66,0-33.99,0-1.19-.53-2.38-.89-3.86Z"/>
        <path class="cls-1" d="M.43.59c6.28.29,12.82.43,19.33.95,2.98.24,5.81,1.41,7.92,3.74,2.56,2.83,2.69,7.81.16,11.31-1.32,1.82-2.96,3.42-4.49,5.08-1.67,1.82-3.4,3.59-5.09,5.39-4.54,4.84-3.95,11.12-.82,16.07,3.22,5.11,7.93,8.72,12.8,12.12.8.56,1.63,1.08,2.44,1.96-1.23,0-2.48-.14-3.69.03-3.53.49-6.08-.87-8.56-3.37-6.68-6.72-8.82-18.73-4.26-26.98,1.88-3.41,4.42-6.46,6.29-9.88.99-1.82,1.56-4.05,1.68-6.13.22-3.82-2.2-6.74-6.04-7.97-3.69-1.18-7.49-1.14-11.46-1-.03.61-.09,1.15-.09,1.7,0,16.53-.02,33.06.02,49.59,0,1.27.4,2.54.63,3.89H.06c1.68-1.98,1.21-4.33,1.22-6.58.03-15.09.03-30.17-.02-45.26,0-1.41-.48-2.82-.82-4.65Z"/>
        <path class="cls-1" d="M78.28,34.61c.25-8.28,4.17-15.39,12.67-19.57,8.51-4.18,20.13-.73,25.15,7.46,5.44,8.86,5.42,17.85-.27,26.54-3.42,5.21-8.52,8.09-14.82,8.55-8.77.64-15.32-2.97-19.81-10.44-1.88-3.12-2.79-6.85-2.92-12.54ZM83.99,35.59c-.04,3.64.55,7.17,1.94,10.54,1.69,4.12,4.17,7.64,8.36,9.46,5.82,2.53,11.95.41,15.74-5.17,5.66-8.35,5.62-21.6-.09-29.91-5.35-7.78-14.29-8.44-20.5-1.37-4.1,4.67-5.4,10.39-5.45,16.45Z"/>
        <path class="cls-1" d="M273.05,55.72c-4.68-2.65-9.2-5.45-12.3-9.42-3.01-3.84-3.58-8.73.78-12.48,1.62-1.4,3.28-2.77,4.89-4.18,1.47-1.3,3.04-2.53,4.31-3.95,2.43-2.72,2.31-6.58-.16-8.78-2.03-1.81-4.75-2.72-7.61-2.9-6.26-.4-12.55-.51-18.58-.74.33,1.42.78,2.52.78,3.61.03,6.84.04,13.69.04,20.53-.32.65-.65,1.36-1,2.09-1.02,2.16-2.16,4.49-3.18,6.02-1.82,2.74-3.94,4.62-3.94,4.62l-.4.41-.02.02-.02.02c-1.2.98-2.2,1.51-3.58,2-8,2.83-16.23-.92-19.52-8.85-2.44-5.88-2.43-11.87-1.09-18.09h26.97c.45-4.48-1.96-9.02-5.62-10.71-8.09-3.74-18.01-.95-23.15,7.28-3.52,5.64-4.39,11.82-3.25,18.25,1.52,8.62,6.79,15.17,15.15,16.92,4.11.86,8.03.23,11.2-1.71.43-.26.85-.54,1.24-.85,0,0,0,0,.02,0,.57-.44,1.11-.93,1.61-1.47l.04-.04c.11-.11.3-.29.54-.52,0,0,0-.02.02-.02,1.07-1.03,3.21-3.17,4.77-5.67.75-1.2,1.5-2.49,2.22-3.81.34-.62.68-1.25,1-1.87,0,3.54,0,7.08,0,10.62,0,1.75.45,3.57-1.17,5.11h6.86c-.22-1.05-.6-2.03-.6-3.02-.04-12.84-.03-25.67-.02-38.51,0-.43.05-.85.09-1.32,3.81-.12,7.46-.14,11.02.78,3.7.95,6.02,3.21,5.81,6.19-.12,1.61-.66,3.35-1.61,4.76-1.79,2.66-4.23,5.02-6.04,7.68-4.38,6.4-2.32,15.74,4.1,20.95,2.38,1.93,4.84,3,8.22,2.61,1.16-.12,2.36-.02,3.55-.02-.78-.68-1.58-1.09-2.34-1.52ZM228.84,14.62c2.92.62,4.8,2.58,5.15,5.38.28,2.23-.64,3.68-2.76,4.32-.54.16-1.11.32-1.66.32-4.95.04-9.91.05-14.86.06h-1.81c2.02-7.38,8.8-11.59,15.94-10.08Z"/>
        <path class="cls-1" d="M60.36,47.46c-.07.12-.15.23-.23.34.14-.16.28-.33.43-.51-.09.05-.16.1-.2.17Z"/>
        <path class="cls-1" d="M75.14,4.67c3.42-.35,6.76.18,10.02,1.54.44-2.02-.28-3.45-1.72-4.56-2.8-2.17-7.08-2.14-10.32-.17-3.15,1.93-4.7,4.91-5.86,8.21-.82,2.32-2.28,3.87-4.88,4.11-.35.03-.69.2-1.03.3,0,.18.02.36.02.54,1.51.08,3.02.16,4.67.26v1.92c0,6.85,0,13.71,0,20.57-.33.66-.67,1.38-1.02,2.13-1.02,2.16-2.16,4.49-3.18,6.02-.43.64-.87,1.24-1.3,1.77-.15.18-.29.35-.43.51,0,.02-.02.02-.03.03-.83,1.26-1.85,2.28-2.98,3.1-4.01,2.9-9.46,3.1-13.74,1.65-4.34-1.47-7.17-4.55-8.91-8.62-2.55-5.92-2.67-12.03-1.14-18.31h15.6c3.41,0,6.82,0,10.22,0,.76,0,1.29-.07,1.27-1.06-.09-4.6-2.65-8.59-6.96-10.15-9.28-3.35-19.25.89-23.5,10.67-3.06,7.05-2.83,14.2.09,21.28,3.42,8.33,12.55,12.98,21.21,10.81,1.6-.4,3.21-1.27,4.63-2.4.09-.05.18-.09.26-.14,0,0,.02,0,.02,0,.67-.55,1.29-1.16,1.86-1.86,0,0,0-.02.02-.02,1.07-1.03,3.21-3.17,4.78-5.67.75-1.2,1.49-2.49,2.22-3.81.34-.63.68-1.27,1.02-1.89,0,3.49-.02,6.98-.03,10.47,0,1.76-.43,3.52-.66,5.27h6.61c-.21-1.57-.6-3.1-.61-4.62-.05-11.95-.02-23.89-.02-35.84v-1.82c4.01-.31,7.84.17,11.6-.65-.69-.37-1.37-.34-2.06-.37-3.23-.17-6.5-.1-9.67-.62-2.62-.43-3.47-3.03-2.07-5.27,1.37-2.2,3.56-3.04,5.99-3.28ZM37.81,17.82c3.87-3.43,8.35-4.48,13.29-2.66,2.59.95,3.94,3.17,3.8,5.73-.09,1.61-.92,2.69-2.4,3.25-.61.23-1.28.47-1.93.47-5.55.04-11.11.02-16.82.02.72-2.73,2.06-5.03,4.07-6.81Z"/>
        <path class="cls-1" d="M143.72,13.5c-.29,1.53-.5,2.95-.88,4.33-.11.4-.71.88-1.14.94-5.91.92-9.05,4.78-10.51,10.15-.67,2.44-.89,5.05-.96,7.6-.14,5.4-.09,10.81,0,16.21.02,1.47.45,2.92.69,4.41h-6.64c.21-1.51.59-2.97.6-4.44.05-11.12.02-22.24.04-33.36,0-1.53.03-3-1.69-4.15,2.44-.66,4.54-1.24,6.87-1.87v14.75c3.15-10.9,7.78-14.58,13.63-14.57Z"/>
      </g>
      <g>
        <path class="cls-1" d="M237.2,52.79c-.57.69-1.19,1.3-1.86,1.86,0,0,0,0-.02,0-.1.05-.21.11-.31.16.57-.44,1.11-.93,1.61-1.47l.04-.04c.11-.11.3-.29.54-.52Z"/>
        <path class="cls-1" d="M60.1,47.84c-.83,1.26-1.85,2.28-2.98,3.1l.78-.79s.99-.88,2.2-2.31Z"/>
        <path class="cls-1" d="M236.65,53.31l-.04.04c-.5.54-1.03,1.02-1.61,1.47,0,0-.02,0-.02,0-.4.31-.82.6-1.24.85.12-.05.24-.09.36-.14.42-.26.82-.56,1.2-.88,0,0,.02,0,.02,0,.68-.55,1.29-1.16,1.86-1.86-.25.23-.43.41-.54.52Z"/>
      </g>
    </g>
  </g>
</svg>