<svg width="39" height="87" viewBox="0 0 39 87" fill="none" xmlns="http://www.w3.org/2000/svg">
<path d="M14.0894 47.0197C14.3494 46.2197 14.5894 45.3797 14.8394 44.5797C18.2494 33.8797 22.8694 22.8897 23.7994 12.8397C24.1894 8.79967 23.9094 4.90967 22.8094 1.31967C22.5494 0.469672 23.4394 -0.260328 24.2494 0.0896716C29.0394 2.17967 32.5994 4.99967 34.8494 8.28967C40.7094 16.7997 38.9694 28.0797 35.4794 39.5597C35.2194 40.3597 34.9794 41.1997 34.7294 41.9997C31.3194 52.6997 26.6994 63.6897 25.7694 73.7397C25.3794 77.7797 25.6594 81.6697 26.7494 85.2597C27.0094 86.1097 26.1194 86.8397 25.3094 86.4897C20.5194 84.3997 16.9594 81.5797 14.7094 78.2897C8.84943 69.7797 10.5894 58.4997 14.0794 47.0197H14.0894Z" fill="#414141"/>
<path d="M5.7794 11.3696C7.6694 11.0596 9.4894 11.1496 11.2294 11.9996C14.0294 13.3796 15.5594 16.4096 14.9794 19.3696C14.3494 22.5596 11.7394 24.8496 8.5094 25.0396C8.1894 25.0596 7.8694 25.0396 7.5594 25.0396C4.5694 25.0296 2.1294 23.9596 0.729401 21.1696C-1.3506 17.0296 1.2294 12.1096 5.7894 11.3596L5.7794 11.3696Z" fill="#414141"/>
</svg>
