<?xml version="1.0" encoding="UTF-8"?>
<svg id="Layer_2" data-name="Layer 2" xmlns="http://www.w3.org/2000/svg" viewBox="0 0 76.28 148.09">
  <defs>
    <style>
      .cls-1 {
        fill: #414141;
        stroke-width: 0px;
      }
    </style>
  </defs>
  <g id="Layer_1-2" data-name="Layer 1">
    <g>
      <path class="cls-1" d="M0,148.09v-18.75h3.09l3.12,8.71h.13l3.17-8.71h3.09v18.75h-2.28v-11.25l.54-4.69h-.27l-.85,2.42-2.58,7.09h-1.74l-2.55-7.09-.85-2.42h-.27l.54,4.69v11.25H0Z"/>
      <path class="cls-1" d="M16.59,148.09v-18.75h11.25v2.01h-8.97v6.29h8.43v2.01h-8.43v6.42h9.25v2.01h-11.52Z"/>
      <path class="cls-1" d="M32.65,148.09v-18.75h3.35l4.66,12.13,1.63,4.21h.27l-.67-4.55v-11.79h2.28v18.75h-3.35l-4.67-12.11-1.63-4.22h-.26l.67,4.58v11.76h-2.28Z"/>
      <path class="cls-1" d="M53.38,148.09v-16.74h-3.48v3.22h-2.28v-5.23h13.67v5.23h-2.28v-3.22h-3.35v16.74h-2.29Z"/>
      <path class="cls-1" d="M64.75,148.09v-18.75h11.25v2.01h-8.97v6.29h8.43v2.01h-8.43v6.42h9.25v2.01h-11.52Z"/>
    </g>
    <g>
      <path class="cls-1" d="M33.15,47.03c.26-.8.5-1.64.75-2.44,3.41-10.7,8.03-21.69,8.96-31.74.39-4.04.11-7.93-.99-11.52-.26-.85.63-1.58,1.44-1.23,4.79,2.09,8.35,4.91,10.6,8.2,5.86,8.51,4.12,19.79.63,31.27-.26.8-.5,1.64-.75,2.44-3.41,10.7-8.03,21.69-8.96,31.74-.39,4.04-.11,7.93.98,11.52.26.85-.63,1.58-1.44,1.23-4.79-2.09-8.35-4.91-10.6-8.2-5.86-8.51-4.12-19.79-.63-31.27Z"/>
      <path class="cls-1" d="M24.84,11.38c1.89-.31,3.71-.22,5.45.63,2.8,1.38,4.33,4.41,3.75,7.37-.63,3.19-3.24,5.48-6.47,5.67-.32.02-.64,0-.95,0-2.99-.01-5.43-1.08-6.83-3.87-2.08-4.14.5-9.06,5.06-9.81Z"/>
    </g>
  </g>
</svg>