<?xml version="1.0" encoding="UTF-8"?>
<svg id="Layer_1" data-name="Layer 1" xmlns="http://www.w3.org/2000/svg" viewBox="0 0 1080 1080">
  <defs>
    <style>
      .cls-1 {
        fill: #f0eee3;
        stroke-width: 0px;
      }
    </style>
  </defs>
  <path class="cls-1" d="M558.27,702.98c-3.42-9.4-2.1-19.57-1.99-29.49-.05,4.96,0,9.92,0,14.87.05,4.86.97,9.66,1.99,14.62Z"/>
  <path class="cls-1" d="M716.66,713.05c-7.51,0-15.23-.87-22.64.15-21.62,3.07-37.31-5.37-52.54-20.65-41.04-41.24-54.18-115.1-26.22-165.75,11.6-20.95,27.14-39.66,38.64-60.67,6.08-11.19,9.56-24.89,10.32-37.67,1.38-23.51-13.54-41.45-37.16-48.96-21.72-6.9-44-7-67.26-6.24-1.02,0-2.1.05-3.12.1-.2,3.73-.56,7.1-.56,10.43,0,95.98-.1,192.07.15,288.05v1.64c-.1,9.92-1.43,20.09,1.99,29.49.05.05.1.1.05.15.61,3.02,1.28,6.03,1.79,9.15h-40.22c.56-3.27,1.28-6.44,1.94-9.61,3.32-9.3,2.05-19.32,1.94-29.08.05-.56.05-1.18,0-1.74.26-95.98.15-192.07.1-288.05,0-3.32-.31-6.7-.51-10.43-1.02-.05-2.1-.1-3.12-.1-23.25-.77-45.59-.66-67.31,6.24-23.61,7.51-38.49,25.45-37.11,48.96.77,12.78,4.19,26.47,10.32,37.67,11.45,21.01,27.04,39.71,38.59,60.67,28.01,50.65,14.87,124.5-26.17,165.75-15.28,15.28-30.92,23.71-52.59,20.65-7.41-1.02-15.08-.15-22.64-.15,5.01-5.37,10.07-8.59,14.98-12.01,29.95-20.9,58.83-43.14,78.6-74.47,19.22-30.46,22.9-69-5.01-98.74-10.38-11.04-20.95-21.93-31.23-33.07-9.46-10.22-19.47-20.03-27.6-31.23-15.54-21.47-14.72-52.03,1.02-69.46,12.93-14.31,30.36-21.52,48.66-23,25.45-1.99,51.01-3.07,76.15-4.04,7.1-.31,14.11-.56,21.11-.87,6.95.31,14,.56,21.06.87,25.15.97,50.7,2.04,76.2,4.04,18.3,1.48,35.73,8.69,48.66,23,15.69,17.43,16.51,47.99.97,69.46-8.07,11.19-18.14,21.01-27.55,31.23-10.27,11.14-20.85,22.03-31.23,33.07-27.91,29.75-24.28,68.28-5.01,98.74,19.78,31.33,48.66,53.56,78.55,74.47,4.96,3.42,10.02,6.64,14.98,12.01Z"/>
  <path class="cls-1" d="M523.77,673.59c.1,9.76,1.38,19.78-1.94,29.08,1.02-4.86,1.89-9.56,1.94-14.31,0-4.91.05-9.86,0-14.77Z"/>
</svg>