<?xml version="1.0" encoding="UTF-8"?>
<svg id="Layer_2" data-name="Layer 2" xmlns="http://www.w3.org/2000/svg" viewBox="0 0 44.62 43">
  <defs>
    <style>
      .cls-1 {
        fill: #414141;
        stroke-width: 0px;
      }
    </style>
  </defs>
  <g id="Layer_1-2" data-name="Layer 1">
    <path class="cls-1" d="M16.53,12.1c-.53-3.25-1.33-7.29-1.97-10.86-.16-.91,1.05-1.38,1.54-.59l5.49,8.82c.33.53,1.1.53,1.43,0L28.68.4c.48-.78,1.69-.33,1.55.57-.48,3.11-.97,6.37-1.54,10.11-.1.64.54,1.15,1.15.91l9.8-3.94c.85-.34,1.56.72.91,1.37-2.22,2.23-4.54,4.58-7.21,7.27-.46.46-.24,1.25.39,1.41l10.26,2.59c.88.22.84,1.49-.06,1.65-3.11.54-6.36,1.1-10.07,1.75-.64.11-.92.87-.5,1.37l6.66,8.02c.58.7-.21,1.7-1.03,1.29-2.67-1.35-5.34-2.7-8.01-4.05-.56-.28-1.22.12-1.22.75l-.06,10.71c0,.88-1.19,1.16-1.59.38l-4.51-8.82c-.29-.56-1.07-.62-1.44-.11l-6.25,8.74c-.51.72-1.64.27-1.52-.61.48-3.37.98-6.88,1.56-10.91.09-.62-.51-1.12-1.11-.92l-10.44,3.63c-.85.3-1.51-.77-.87-1.4l7.04-6.9c.47-.46.25-1.26-.38-1.42L.63,21.4c-.88-.23-.83-1.5.07-1.65,3.1-.52,6.34-1.06,10.08-1.68.67-.11.94-.94.46-1.42-2.46-2.5-4.66-4.73-6.77-6.88-.66-.67.11-1.74.96-1.35l9.92,4.58c.61.28,1.29-.23,1.18-.9Z"/>
  </g>
</svg>