<svg width="35" height="33" viewBox="0 0 45 43" fill="none" xmlns="http://www.w3.org/2000/svg">
<g clip-path="url(#clip0_113_5)">
<path d="M16.53 12.1C16 8.84997 15.2 4.80997 14.56 1.23997C14.4 0.329973 15.61 -0.140027 16.1 0.649973L21.59 9.46997C21.92 9.99997 22.69 9.99997 23.02 9.46997L28.68 0.399973C29.16 -0.380027 30.37 0.0699734 30.23 0.969973C29.75 4.07997 29.26 7.33997 28.69 11.08C28.59 11.72 29.23 12.23 29.84 11.99L39.64 8.04997C40.49 7.70997 41.2 8.76997 40.55 9.41997C38.33 11.65 36.01 14 33.34 16.69C32.88 17.15 33.1 17.94 33.73 18.1L43.99 20.69C44.87 20.91 44.83 22.18 43.93 22.34C40.82 22.88 37.57 23.44 33.86 24.09C33.22 24.2 32.94 24.96 33.36 25.46L40.02 33.48C40.6 34.18 39.81 35.18 38.99 34.77C36.32 33.42 33.65 32.07 30.98 30.72C30.42 30.44 29.76 30.84 29.76 31.47L29.7 42.18C29.7 43.06 28.51 43.34 28.11 42.56L23.6 33.74C23.31 33.18 22.53 33.12 22.16 33.63L15.91 42.37C15.4 43.09 14.27 42.64 14.39 41.76C14.87 38.39 15.37 34.88 15.95 30.85C16.04 30.23 15.44 29.73 14.84 29.93L4.40002 33.56C3.55002 33.86 2.89002 32.79 3.53002 32.16L10.57 25.26C11.04 24.8 10.82 24 10.19 23.84L0.630023 21.4C-0.249977 21.17 -0.199977 19.9 0.700023 19.75C3.80002 19.23 7.04002 18.69 10.78 18.07C11.45 17.96 11.72 17.13 11.24 16.65C8.78002 14.15 6.58002 11.92 4.47002 9.76997C3.81002 9.09997 4.58002 8.02997 5.43002 8.41997L15.35 13C15.96 13.28 16.64 12.77 16.53 12.1Z" fill="#F2F0E5"/>
</g>
<defs>
<clipPath id="clip0_113_5">
<rect width="44.62" height="43" fill="white"/>
</clipPath>
</defs>
</svg>