<?xml version="1.0" encoding="UTF-8"?>
<svg id="Layer_1" data-name="Layer 1" xmlns="http://www.w3.org/2000/svg" viewBox="0 0 500 500">
  <defs>
    <style>
      .cls-1 {
        fill: #f2f0e5;
        stroke-width: 0px;
      }
    </style>
  </defs>
  <path class="cls-1" d="M239.28,65.87c7.2,0,14.4,0,21.59,0,6.17.77,12.37,1.32,18.49,2.35,38.22,6.39,71.59,22.76,99.1,50.06,41.75,41.43,60.13,91.87,54.83,150.37-3.52,38.82-18.43,73.38-44.53,102.4-43.85,48.76-98.79,69.27-163.93,61.45-26.29-3.15-50.6-12.42-72.92-26.71-2.23-1.43-4.14-1.66-6.66-.84-21.17,6.88-42.39,13.63-63.59,20.41-1.07.34-2.17.57-3.57.93.47-1.47.79-2.49,1.13-3.5,6.74-20.08,13.42-40.19,20.28-60.22,1.07-3.11.92-5.42-1.04-8.22-15.33-21.92-25.23-46.15-29.77-72.5-1.32-7.64-1.95-15.4-2.89-23.11,0-6.48,0-12.96,0-19.43.21-1.03.54-2.06.61-3.1,2.07-28.57,10.24-55.31,25.12-79.74,29.22-47.94,71.47-77.39,126.78-87.75,6.92-1.3,13.96-1.93,20.94-2.87ZM309.43,353.95c5.97-1.14,11.2-1.51,16-3.15,26.07-8.91,34.92-21.5,35.68-45.55.12-3.82-1.29-6.37-4.75-8.02-13.62-6.48-27.15-13.16-40.82-19.54-7.36-3.43-11.5-2.07-16.38,4.57-3.4,4.64-6.77,9.3-10.32,13.83-5.85,7.45-9.67,8.38-18.35,4.83-30.09-12.3-52.52-33.33-69.41-60.71-3.88-6.29-3.68-8.4,1.27-14.02,3.4-3.87,6.97-7.61,10.18-11.64,2.94-3.69,5.68-7.74,3.57-12.81-6.4-15.36-12.85-30.7-19.52-45.93-.82-1.86-2.9-4.03-4.75-4.44-9.83-2.18-19.98-2.69-28.12,4.16-17.48,14.72-23.09,34.18-19.64,56.26,2.45,15.67,9.79,29.4,18.7,42.38,14.31,20.86,30.46,40.04,49.72,56.55,21.43,18.37,46.31,30.04,73.11,37.93,7.99,2.35,16.28,3.66,23.82,5.31Z"/>
</svg>